<svg width="34" height="17" viewBox="0 0 34 17" fill="none" xmlns="http://www.w3.org/2000/svg">
<path d="M29.7194 8.05263L29.8437 5.43035L27.5525 6.8568L26.842 5.67806L29.2754 4.48223L26.842 3.2864L27.5525 2.09057L29.8437 3.51702L29.7194 0.894737H31.1226L30.9982 3.51702L33.2895 2.09057L33.9999 3.2864L31.5666 4.48223L33.9999 5.67806L33.2895 6.8568L30.9982 5.43035L31.1226 8.05263H29.7194Z" fill="#FAFAFA"/>
<path d="M24.5506 3.80263V5.3082H18.7896V3.80263H24.5506ZM20.3599 13.4211V2.68421C20.3599 2.08772 20.4999 1.5916 20.7799 1.19585C21.066 0.794366 21.4372 0.49612 21.8937 0.301113C22.3563 0.100371 22.8524 0 23.3819 0C23.7897 0 24.1367 0.0315452 24.4227 0.0946356C24.7088 0.157726 24.9188 0.212213 25.0527 0.258097L24.578 1.77227C24.4867 1.74359 24.368 1.71204 24.2219 1.67763C24.0819 1.64322 23.9054 1.62601 23.6923 1.62601C23.2115 1.62601 22.8646 1.74072 22.6515 1.97014C22.4385 2.19383 22.332 2.52075 22.332 2.95091V13.4211H20.3599Z" fill="#FAFAFA"/>
<path d="M19.1822 3.80263V5.3082H13.4211V3.80263H19.1822ZM14.9915 13.4211V2.68421C14.9915 2.08772 15.1315 1.5916 15.4115 1.19585C15.6975 0.794366 16.0688 0.49612 16.5253 0.301113C16.9879 0.100371 17.484 0 18.0135 0C18.4213 0 18.7683 0.0315452 19.0543 0.0946356C19.3404 0.157726 19.5504 0.212213 19.6843 0.258097L19.2095 1.77227C19.1182 1.74359 18.9996 1.71204 18.8535 1.67763C18.7135 1.64322 18.537 1.62601 18.3239 1.62601C17.8431 1.62601 17.4962 1.74072 17.2831 1.97014C17.0701 2.19383 16.9636 2.52075 16.9636 2.95091V13.4211H14.9915Z" fill="#FAFAFA"/>
<path d="M9.18603 13.4211C8.21939 13.4211 7.38241 13.2194 6.67511 12.816C5.96781 12.4127 5.4226 11.8446 5.03947 11.1118C4.66225 10.3733 4.47363 9.51261 4.47363 8.52982C4.47363 7.55271 4.6593 6.69206 5.03063 5.94787C5.40786 5.20368 5.93539 4.62423 6.61322 4.20952C7.29695 3.78914 8.09855 3.57895 9.01805 3.57895C9.57799 3.57895 10.1203 3.667 10.6448 3.84311C11.1694 4.01921 11.641 4.29758 12.0594 4.6782C12.4779 5.05881 12.808 5.55305 13.0497 6.1609C13.2972 6.76875 13.421 7.50159 13.421 8.3594V9.02406H5.56111V7.63509H12.4308L11.5378 8.09524C11.5378 7.51011 11.4435 6.99315 11.2549 6.54436C11.0663 6.09557 10.7834 5.7462 10.4061 5.49624C10.0348 5.2406 9.5721 5.11278 9.01805 5.11278C8.46399 5.11278 7.98951 5.2406 7.5946 5.49624C7.20559 5.75188 6.90793 6.08989 6.70163 6.51028C6.49534 6.93066 6.39219 7.39081 6.39219 7.89073V8.83659C6.39219 9.48989 6.51007 10.0438 6.74584 10.4982C6.98161 10.9527 7.30873 11.2992 7.72722 11.5378C8.1516 11.7764 8.64377 11.8957 9.20371 11.8957C9.56915 11.8957 9.89923 11.8446 10.1939 11.7424C10.4945 11.6401 10.7539 11.4867 10.972 11.2822C11.1901 11.0777 11.3551 10.8249 11.4671 10.5238L13.2884 10.8561C13.141 11.3674 12.8817 11.8162 12.5104 12.2025C12.139 12.5888 11.6704 12.8899 11.1046 13.1058C10.5446 13.316 9.90512 13.4211 9.18603 13.4211Z" fill="#FAFAFA"/>
<path d="M1.52903 3.72496H3.34371V14.0183C3.34931 14.6636 3.2373 15.2081 3.00766 15.6518C2.77802 16.0954 2.44197 16.4296 1.99951 16.6543C1.55704 16.8848 1.01376 17 0.369657 17H0V15.3838H0.294045C0.730912 15.3838 1.04456 15.2657 1.23499 15.0295C1.42542 14.7933 1.52343 14.4533 1.52903 14.0097V3.72496ZM2.42797 2.23843C2.10872 2.23843 1.83708 2.12896 1.61305 1.91002C1.38901 1.69107 1.277 1.42891 1.277 1.12354C1.277 0.812405 1.38901 0.547365 1.61305 0.328419C1.83708 0.109473 2.10872 0 2.42797 0C2.74162 0 3.01046 0.109473 3.23449 0.328419C3.46413 0.547365 3.57895 0.812405 3.57895 1.12354C3.57895 1.42891 3.46413 1.69107 3.23449 1.91002C3.01046 2.12896 2.74162 2.23843 2.42797 2.23843Z" fill="#FAFAFA"/>
</svg>
